<svg width="20" height="23" viewBox="0 0 20 23" fill="none" xmlns="http://www.w3.org/2000/svg">
<path d="M8.25635 10.1939C10.9275 10.1939 13.1001 8.0208 13.1001 5.35015C13.1001 2.6795 10.9275 0.50639 8.25635 0.50639C5.58566 0.50639 3.41263 2.67946 3.41263 5.35011C3.41263 8.02076 5.58566 10.1939 8.25635 10.1939ZM8.25635 2.44389C9.85894 2.44389 11.1626 3.74752 11.1626 5.35015C11.1626 6.95278 9.85898 8.25641 8.25635 8.25641C6.65372 8.25641 5.35009 6.95278 5.35009 5.35015C5.35009 3.74752 6.65376 2.44389 8.25635 2.44389Z" fill="#64748B" stroke="#64748B"/>
<path d="M3.4126 19.8813H8.25632C8.79176 19.8813 9.22507 19.4476 9.22507 18.9126C9.22507 18.3776 8.79176 17.9438 8.25632 17.9438H3.4126C2.87855 17.9438 2.44385 17.5096 2.44385 16.9751C2.44385 15.3725 3.74747 14.0688 5.35011 14.0688H11.1626C11.4095 14.0688 11.6545 14.0996 11.8905 14.1606C12.4085 14.293 12.9364 13.9818 13.0698 13.4633C13.2032 12.9454 12.891 12.417 12.373 12.2836C11.9795 12.1824 11.5722 12.1313 11.1626 12.1313H5.35011C2.67941 12.1313 0.50639 14.3044 0.50639 16.975C0.50639 18.5777 1.81001 19.8813 3.4126 19.8813Z" fill="#64748B" stroke="#64748B"/>
<path d="M16.2969 14.9684C15.9176 14.5899 15.3046 14.5914 14.9271 14.9702C14.5496 15.3496 14.5506 15.9626 14.9294 16.3401L16.1853 17.5917H12.7067C12.1722 17.5917 11.738 18.0255 11.738 18.5605C11.738 19.0954 12.1722 19.5292 12.7067 19.5292H16.1806L14.928 20.7818C14.5496 21.1602 14.5496 21.7733 14.928 22.1517C15.1172 22.3409 15.3651 22.4355 15.6129 22.4355C15.8608 22.4355 16.1091 22.3409 16.2979 22.1517L19.2098 19.2402C19.3914 19.0581 19.4936 18.8117 19.4936 18.5543C19.4931 18.2975 19.3905 18.0506 19.2084 17.8689L16.2969 14.9684Z" fill="#64748B" stroke="#64748B"/>
</svg>
