<svg width="24" height="24" viewBox="0 0 24 24" fill="none" xmlns="http://www.w3.org/2000/svg">
<g clip-path="url(#clip0_364_1295)">
<path fill-rule="evenodd" clip-rule="evenodd" d="M23.2583 1H0.741734C0.534739 1 0.350743 1.0805 0.218495 1.21275C0.0862482 1.34499 0 1.54049 0 1.74173V12.816C0 13.0172 0.0804983 13.207 0.212746 13.3392C0.344993 13.4715 0.534739 13.5577 0.741734 13.5577H23.2583C23.4653 13.5577 23.6493 13.4715 23.7815 13.3392C23.9195 13.207 24 13.0172 24 12.816V1.74173C24 1.54049 23.9137 1.35074 23.7815 1.2185C23.6493 1.08625 23.4653 1 23.2583 1ZM12 3.48395C14.093 3.48395 15.7892 5.18591 15.7892 7.27887C15.7892 9.37182 14.093 11.068 12 11.068C9.90704 11.068 8.21083 9.37182 8.21083 7.27887C8.21083 5.18591 9.90704 3.48395 12 3.48395ZM10.5798 6.35314C10.5798 5.72065 10.9938 5.23766 11.586 5.06517V4.58218C11.586 4.48443 11.6665 4.39818 11.7643 4.39818H12.2357C12.3335 4.39818 12.414 4.48443 12.414 4.58218V5.04217C12.5232 5.07091 12.6325 5.11116 12.736 5.16866C13.104 5.37566 13.3225 5.73215 13.3972 6.14614C13.403 6.20364 13.3915 6.25539 13.3512 6.29564C13.3167 6.33589 13.2707 6.35889 13.2132 6.35889H12.7877C12.7072 6.35889 12.6325 6.30714 12.6095 6.23239C12.4485 5.6919 11.4365 5.6344 11.4365 6.29564C11.4365 6.65788 11.908 6.79588 12.184 6.89363C12.8395 7.13512 13.4202 7.38812 13.4202 8.19885C13.4202 8.83709 13.0062 9.31433 12.414 9.49257V9.96981C12.414 10.0733 12.3335 10.1538 12.2357 10.1538H11.7643C11.6665 10.1538 11.586 10.0733 11.586 9.96981V9.50982C11.4768 9.48107 11.3675 9.44657 11.264 9.38907C10.896 9.18208 10.6775 8.81984 10.6028 8.40584C10.597 8.3541 10.6085 8.30235 10.643 8.25635C10.6833 8.2161 10.7293 8.1931 10.7868 8.1931H11.2123C11.2928 8.1931 11.3675 8.24485 11.3905 8.32535C11.5515 8.86584 12.5635 8.92333 12.5635 8.25635C12.5635 7.87111 12.023 7.73311 11.7355 7.62961C11.103 7.39962 10.5798 7.12362 10.5798 6.35314ZM6.02587 6.32439C6.54911 6.32439 6.9746 6.74988 6.9746 7.27887C6.9746 7.80211 6.54911 8.23335 6.02587 8.23335C5.49688 8.23335 5.07139 7.80211 5.07139 7.27887C5.07139 6.74988 5.49688 6.32439 6.02587 6.32439ZM17.9741 6.32439C18.5031 6.32439 18.9286 6.74988 18.9286 7.27887C18.9286 7.80211 18.5031 8.23335 17.9741 8.23335C17.4509 8.23335 17.0254 7.80211 17.0254 7.27887C17.0254 6.74988 17.4509 6.32439 17.9741 6.32439ZM2.84044 2.44897H21.1596C21.1596 3.11021 21.6713 3.64494 22.3038 3.64494V10.9128C21.6713 10.9128 21.1596 11.4475 21.1596 12.103C17.5831 12.103 6.41687 12.103 2.84044 12.103C2.84044 11.4475 2.3287 10.9128 1.69621 10.9128V3.64494C2.3287 3.64494 2.84044 3.11021 2.84044 2.44897Z" fill="#64748B"/>
<path fill-rule="evenodd" clip-rule="evenodd" d="M12.2548 23.8784L14.9178 20.7432C15.0055 20.6396 15.024 20.5 14.9686 20.3739C14.9132 20.2432 14.7978 20.1667 14.664 20.1667H13.3117V16.3514C13.3117 16.1577 13.1594 16 12.9702 16H11.0272C10.8426 16 10.6903 16.1577 10.6903 16.3514V20.1667H9.33803C9.20419 20.1667 9.08881 20.2432 9.03343 20.3739C8.97343 20.5 8.9965 20.6396 9.08419 20.7432L11.7472 23.8784C11.8118 23.9595 11.8995 24 12.001 24C12.1025 24 12.1902 23.9595 12.2548 23.8784Z" fill="#0070B7"/>
</g>
<defs>
<clipPath id="clip0_364_1295">
<rect width="24" height="24" fill="white"/>
</clipPath>
</defs>
</svg>
