<svg width="20" height="20" viewBox="0 0 20 20" fill="none" xmlns="http://www.w3.org/2000/svg">
<path d="M18.6125 11.527C18.1026 13.5711 16.2735 14.9994 14.1669 14.9994H5.99058C4.53481 14.9994 3.29153 13.9111 3.09987 12.4686L1.81909 2.86154C1.79159 2.65572 1.6141 2.49989 1.40577 2.49989H1.24995C0.559143 2.49989 0 1.93992 0 1.24995C0 0.559976 0.559976 0 1.25078 0H1.40661C2.86238 0 4.10566 1.08829 4.29732 2.53073L4.51564 4.16649H8.75129C9.4421 4.16649 10.0012 4.72646 10.0012 5.41644C10.0012 6.10641 9.4421 6.66638 8.75129 6.66638H4.84813L5.57726 12.1378C5.60476 12.3436 5.78225 12.4995 5.99058 12.4995H14.1669C15.1244 12.4995 15.9551 11.8512 16.1876 10.9212C16.3543 10.2512 17.0309 9.84291 17.7026 10.0112C18.3725 10.1779 18.78 10.857 18.6125 11.5262V11.527ZM20 4.16649C20 6.46722 18.1342 8.33298 15.8335 8.33298C13.5328 8.33298 11.667 6.46722 11.667 4.16649C11.667 1.86575 13.5328 0 15.8335 0C18.1342 0 20 1.86575 20 4.16649ZM17.5001 4.6548L16.6668 3.8215V2.49989C16.6668 2.03991 16.2935 1.6666 15.8335 1.6666C15.3735 1.6666 15.0002 2.03991 15.0002 2.49989V4.16649C15.0002 4.38731 15.0877 4.5998 15.2443 4.75563L16.3218 5.83308C16.6476 6.15807 17.1751 6.15807 17.5001 5.83308C17.8259 5.50726 17.8259 4.97979 17.5001 4.6548ZM5.83392 16.666C4.91312 16.666 4.16732 17.4118 4.16732 18.3325C4.16732 19.2533 4.91312 19.9991 5.83392 19.9991C6.75471 19.9991 7.50051 19.2533 7.50051 18.3325C7.50051 17.4118 6.75471 16.666 5.83392 16.666ZM14.1669 16.666C13.2461 16.666 12.5003 17.4118 12.5003 18.3325C12.5003 19.2533 13.2461 19.9991 14.1669 19.9991C15.0877 19.9991 15.8335 19.2533 15.8335 18.3325C15.8335 17.4118 15.0877 16.666 14.1669 16.666Z" fill="#64748B"/>
</svg>
