<svg width="24" height="24" viewBox="0 0 24 24" fill="none" xmlns="http://www.w3.org/2000/svg">
<path fill-rule="evenodd" clip-rule="evenodd" d="M5.63604 5.63616C8.58166 2.69053 13.0588 2.21461 16.5004 4.20382C16.9786 4.4802 17.1421 5.09187 16.8658 5.57003C16.5894 6.04819 15.9777 6.21176 15.4996 5.93539C12.8222 4.38791 9.33953 4.76109 7.05025 7.05037C4.31658 9.78404 4.31658 14.2162 7.05025 16.9499C9.33953 19.2391 12.8222 19.6123 15.4996 18.0648C15.9777 17.7885 16.5894 17.952 16.8658 18.4302C17.1421 18.9084 16.9786 19.52 16.5004 19.7964C13.0588 21.7856 8.58166 21.3097 5.63604 18.3641C2.12132 14.8494 2.12132 9.15087 5.63604 5.63616ZM18.2929 8.29301C18.6834 7.90248 19.3166 7.90248 19.7071 8.29301L21.5983 10.1842C21.7768 10.3627 21.9506 10.5364 22.0858 10.6956C22.2342 10.8705 22.3938 11.0924 22.4879 11.3821C22.6184 11.7838 22.6184 12.2165 22.4879 12.6181C22.3938 12.9079 22.2342 13.1298 22.0858 13.3046C21.9506 13.4638 21.7768 13.6376 21.5983 13.816L19.7071 15.7072C19.3166 16.0977 18.6834 16.0977 18.2929 15.7072C17.9024 15.3167 17.9024 14.6835 18.2929 14.293L19.5858 13.0001H12C11.4477 13.0001 11 12.5524 11 12.0001C11 11.4478 11.4477 11.0001 12 11.0001H19.5858L18.2929 9.70722C17.9024 9.3167 17.9024 8.68353 18.2929 8.29301Z" fill="#64748B"/>
</svg>
