<svg width="14" height="8" viewBox="0 0 14 8" fill="none" xmlns="http://www.w3.org/2000/svg">
<path d="M13.5901 0.41036C13.4601 0.280266 13.3058 0.177064 13.1358 0.106653C12.9659 0.0362411 12.7838 0 12.5999 0C12.416 0 12.2339 0.0362411 12.0639 0.106653C11.894 0.177064 11.7397 0.280266 11.6096 0.41036L7.32945 4.68962C7.24194 4.7771 7.12327 4.82625 6.99953 4.82625C6.87579 4.82625 6.75711 4.7771 6.6696 4.68962L2.39034 0.41036C2.12784 0.14773 1.77175 0.000136467 1.40042 4.89544e-05C1.0291 -3.85582e-05 0.672941 0.147387 0.410311 0.409894C0.147681 0.6724 8.75571e-05 1.02848 3.89437e-08 1.39981C-8.74792e-05 1.77114 0.147338 2.1273 0.409845 2.38993L4.69003 6.67012C4.99337 6.97348 5.35349 7.21413 5.74984 7.37831C6.14618 7.5425 6.57099 7.627 6.99999 7.627C7.429 7.627 7.8538 7.5425 8.25015 7.37831C8.64649 7.21413 9.00662 6.97348 9.30995 6.67012L13.5901 2.38993C13.8526 2.12739 14 1.77137 14 1.40014C14 1.02892 13.8526 0.672894 13.5901 0.41036Z" fill="#64748B"/>
</svg>
