<svg width="16" height="13" viewBox="0 0 16 13" fill="none" xmlns="http://www.w3.org/2000/svg">
<path d="M15.1776 6.49472C15.1724 5.92436 14.9425 5.37905 14.538 4.97695L9.88714 0.315253C9.68402 0.113336 9.40925 0 9.12284 0C8.83643 0 8.56166 0.113336 8.35854 0.315253C8.25693 0.416036 8.17627 0.53594 8.12124 0.66805C8.0662 0.80016 8.03786 0.94186 8.03786 1.08498C8.03786 1.22809 8.0662 1.36979 8.12124 1.5019C8.17627 1.63401 8.25693 1.75392 8.35854 1.8547L11.9253 5.4106H1.08412C0.796591 5.4106 0.520842 5.52482 0.317531 5.72813C0.114219 5.93144 0 6.20719 0 6.49472C0 6.78224 0.114219 7.05799 0.317531 7.2613C0.520842 7.46461 0.796591 7.57883 1.08412 7.57883H11.9253L8.35854 11.1456C8.1544 11.3483 8.03914 11.6238 8.03812 11.9115C8.03711 12.1992 8.15041 12.4755 8.35312 12.6796C8.55582 12.8837 8.83132 12.999 9.11901 13C9.40669 13.001 9.683 12.8877 9.88714 12.685L14.538 8.02332C14.9452 7.61857 15.1752 7.06884 15.1776 6.49472Z" fill="white"/>
</svg>
