<svg width="24" height="24" viewBox="0 0 24 24" fill="none" xmlns="http://www.w3.org/2000/svg">
<path d="M23.018 8.785C22.423 8.243 21.662 7.965 20.849 8.003C20.045 8.04 19.304 8.389 18.764 8.984L15.547 12.519C14.996 11.609 13.997 11 12.858 11H4C1.794 11 0 12.794 0 15V20C0 22.206 1.794 24 4 24H8.965C11.814 24 14.535 22.78 16.432 20.652L23.236 13.015C24.33 11.789 24.232 9.892 23.018 8.785ZM21.743 11.684L14.939 19.322C13.421 21.023 11.244 22 8.965 22H4C2.897 22 2 21.103 2 20V15C2 13.897 2.897 13 4 13H12.858C13.487 13 14 13.513 14 14.143C14 14.707 13.579 15.194 13.02 15.273L7.859 16.01C7.313 16.088 6.933 16.595 7.011 17.142C7.089 17.69 7.598 18.07 8.142 17.991L13.303 17.254C14.478 17.086 15.432 16.267 15.817 15.196L20.244 10.331C20.425 10.131 20.674 10.015 20.943 10.002C21.215 9.994 21.472 10.084 21.671 10.264C22.078 10.636 22.111 11.273 21.743 11.685V11.684ZM14.294 4.293C13.903 3.902 13.903 3.27 14.294 2.879L16.587 0.586C16.96 0.212 17.501 0 18.001 0C18.501 0 19.042 0.212 19.415 0.586L21.708 2.879C22.099 3.27 22.099 3.902 21.708 4.293C21.513 4.488 21.257 4.586 21.001 4.586C20.745 4.586 20.489 4.488 20.294 4.293L19.001 3V6C19.001 6.552 18.554 7 18.001 7C17.448 7 17.001 6.552 17.001 6V3L15.708 4.293C15.317 4.684 14.685 4.684 14.294 4.293ZM6.751 9H10.251C11.768 9 13.001 7.69 13.001 6.081C13.001 4.416 11.42 2.608 9.863 1.858C10.027 1.694 10.185 1.516 10.325 1.327C10.73 0.777 10.357 0.001 9.674 0.001H7.327C6.681 0.001 6.26 0.731 6.632 1.26C6.783 1.474 6.959 1.675 7.142 1.858C5.584 2.608 4.002 4.417 4.002 6.082C4.002 7.692 5.235 9.001 6.752 9.001L6.751 9ZM8.501 3.5C9.246 3.5 11.001 5.027 11.001 6.081C11.001 6.588 10.665 7 10.251 7H6.751C6.337 7 6.001 6.587 6.001 6.081C6.001 5.027 7.756 3.5 8.501 3.5Z" fill="#64748B"/>
</svg>
