<svg width="20" height="20" viewBox="0 0 20 20" fill="none" xmlns="http://www.w3.org/2000/svg">
<g clip-path="url(#clip0_364_1329)">
<path d="M1.25004 12.9167C1.58156 12.9167 1.8995 13.0484 2.13392 13.2828C2.36834 13.5172 2.50004 13.8351 2.50004 14.1667V15.4167C2.50004 15.9692 2.71953 16.4991 3.11023 16.8898C3.50094 17.2805 4.03084 17.5 4.58337 17.5H5.83337C6.16489 17.5 6.48284 17.6317 6.71726 17.8661C6.95168 18.1005 7.08337 18.4185 7.08337 18.75C7.08337 19.0815 6.95168 19.3995 6.71726 19.6339C6.48284 19.8683 6.16489 20 5.83337 20H4.58337C3.3682 19.9987 2.20319 19.5154 1.34393 18.6561C0.484675 17.7969 0.00136423 16.6318 4.1008e-05 15.4167V14.1667C4.1008e-05 13.8351 0.131738 13.5172 0.366158 13.2828C0.600578 13.0484 0.91852 12.9167 1.25004 12.9167Z" fill="#64748B"/>
<path d="M14.1667 0H15.4167C16.6318 0.00132347 17.7969 0.484634 18.6561 1.34389C19.5154 2.20314 19.9987 3.36816 20 4.58333V5.83333C20 6.16485 19.8683 6.4828 19.6339 6.71722C19.3995 6.95164 19.0815 7.08333 18.75 7.08333C18.4185 7.08333 18.1005 6.95164 17.8661 6.71722C17.6317 6.4828 17.5 6.16485 17.5 5.83333V4.58333C17.5 4.0308 17.2805 3.5009 16.8898 3.11019C16.4991 2.71949 15.9692 2.5 15.4167 2.5H14.1667C13.8351 2.5 13.5172 2.3683 13.2828 2.13388C13.0484 1.89946 12.9167 1.58152 12.9167 1.25C12.9167 0.918479 13.0484 0.600537 13.2828 0.366116C13.5172 0.131696 13.8351 0 14.1667 0Z" fill="#64748B"/>
<path d="M14.1667 17.5H15.4167C15.9692 17.5 16.4991 17.2805 16.8898 16.8898C17.2805 16.4991 17.5 15.9692 17.5 15.4167V14.1667C17.5 13.8351 17.6317 13.5172 17.8661 13.2828C18.1005 13.0484 18.4185 12.9167 18.75 12.9167C19.0815 12.9167 19.3995 13.0484 19.6339 13.2828C19.8683 13.5172 20 13.8351 20 14.1667V15.4167C19.9987 16.6318 19.5154 17.7969 18.6561 18.6561C17.7969 19.5154 16.6318 19.9987 15.4167 20H14.1667C13.8351 20 13.5172 19.8683 13.2828 19.6339C13.0484 19.3995 12.9167 19.0815 12.9167 18.75C12.9167 18.4185 13.0484 18.1005 13.2828 17.8661C13.5172 17.6317 13.8351 17.5 14.1667 17.5Z" fill="#64748B"/>
<path d="M4.58337 0H5.83337C6.16489 0 6.48284 0.131696 6.71726 0.366116C6.95168 0.600537 7.08337 0.918479 7.08337 1.25C7.08337 1.58152 6.95168 1.89946 6.71726 2.13388C6.48284 2.3683 6.16489 2.5 5.83337 2.5H4.58337C4.03084 2.5 3.50094 2.71949 3.11023 3.11019C2.71953 3.5009 2.50004 4.0308 2.50004 4.58333V5.83333C2.50004 6.16485 2.36834 6.4828 2.13392 6.71722C1.8995 6.95164 1.58156 7.08333 1.25004 7.08333C0.91852 7.08333 0.600578 6.95164 0.366158 6.71722C0.131738 6.4828 4.1008e-05 6.16485 4.1008e-05 5.83333V4.58333C0.00136423 3.36816 0.484675 2.20314 1.34393 1.34389C2.20319 0.484634 3.3682 0.00132347 4.58337 0Z" fill="#64748B"/>
</g>
<defs>
<clipPath id="clip0_364_1329">
<rect width="20" height="20" fill="white" transform="matrix(-1 0 0 1 20 0)"/>
</clipPath>
</defs>
</svg>
