<svg width="24" height="24" viewBox="0 0 24 24" fill="none" xmlns="http://www.w3.org/2000/svg">
<g clip-path="url(#clip0_364_1385)">
<path d="M20.6708 19.0839L17.1869 15.5986C19.7937 12.115 19.0829 7.17775 15.5993 4.57096C12.1157 1.96417 7.17849 2.67496 4.5717 6.15854C1.9649 9.64212 2.67569 14.5794 6.15927 17.1862C8.95757 19.2802 12.801 19.2802 15.5993 17.1862L19.0846 20.6715C19.5226 21.1095 20.2328 21.1095 20.6707 20.6715C21.1087 20.2335 21.1087 19.5234 20.6707 19.0854L20.6708 19.0839ZM10.9083 16.5135C7.8123 16.5135 5.30249 14.0036 5.30249 10.9076C5.30249 7.81157 7.8123 5.30176 10.9083 5.30176C14.0044 5.30176 16.5142 7.81157 16.5142 10.9076C16.5109 14.0022 14.003 16.5102 10.9083 16.5135Z" fill="#64748B"/>
</g>
<defs>
<clipPath id="clip0_364_1385">
<rect width="18" height="18" fill="white" transform="translate(3 3)"/>
</clipPath>
</defs>
</svg>
