<svg width="18" height="17" viewBox="0 0 18 17" fill="none" xmlns="http://www.w3.org/2000/svg">
<path d="M2.62499 14.28H5.24999V16.8H2.62499C1.1775 16.8 0 15.4812 0 13.86V10.92H2.25V13.86C2.25 14.0918 2.418 14.28 2.62499 14.28ZM15.75 13.86C15.75 14.0918 15.582 14.28 15.375 14.28H12.75V16.8H15.375C16.8225 16.8 18 15.4812 18 13.86V10.92H15.75V13.86ZM15.375 0H12.75V2.52H15.375C15.582 2.52 15.75 2.70815 15.75 2.93999V5.87999H18V2.93999C18 1.3188 16.8225 0 15.375 0ZM2.25 2.93999C2.25 2.70815 2.418 2.52 2.62499 2.52H5.24999V0H2.62499C1.1775 0 0 1.3188 0 2.93999V5.87999H2.25V2.93999ZM3.74999 12.6H6.74999V4.19999H3.74999V12.6ZM9.74998 12.6H12V4.19999H9.74998V12.6ZM8.99998 4.19999H7.49999V12.6H8.99998V4.19999ZM14.25 4.19999H12.75V12.6H14.25V4.19999Z" fill="#64748B"/>
</svg>
