<svg width="14" height="15" viewBox="0 0 14 15" fill="none" xmlns="http://www.w3.org/2000/svg">
<path d="M5.35026 7.11754L0.341797 2.02498C-0.113932 1.5616 -0.113932 0.810918 0.341797 0.347536C0.797526 -0.115845 1.53581 -0.115845 1.99154 0.347536L7 5.4401L12.0085 0.347536C12.4642 -0.115845 13.2025 -0.115845 13.6582 0.347536C14.1139 0.810918 14.1139 1.5616 13.6582 2.02498L8.64974 7.11754L13.6582 12.2101C14.1139 12.6735 14.1139 13.4242 13.6582 13.8875C13.4303 14.1192 13.1318 14.2351 12.8333 14.2351C12.5348 14.2351 12.2363 14.1192 12.0085 13.8875L7 8.79498L1.99154 13.8875C1.76367 14.1192 1.46517 14.2351 1.16667 14.2351C0.868164 14.2351 0.569662 14.1192 0.341797 13.8875C-0.113932 13.4242 -0.113932 12.6735 0.341797 12.2101L5.35026 7.11754Z" fill="black"/>
</svg>
