<svg width="24" height="24" viewBox="0 0 24 24" fill="none" xmlns="http://www.w3.org/2000/svg">
<path d="M19.4093 11.0195L19.4075 7.56525C19.4075 6.5365 18.5315 5.6995 17.5028 5.6995C17.25 5.6995 17 5.7505 16.75 5.842V5.30275C16.75 4.313 16.0228 3.5 15.033 3.5H14.8913C14.6815 3.5 14.398 3.55775 14.2108 3.624C14.1798 2.596 13.4415 2 12.507 2H12.3653C11.3758 2 10.75 2.78625 10.75 3.776V3.91375C10.419 3.7805 10.1973 3.75 9.99625 3.75H9.8545C8.86475 3.75 8 4.623 8 5.61275V10.5007C7.75 10.305 7.53025 10.1575 7.231 10.0732C6.686 9.92 6.12875 9.988 5.63475 10.2647C4.62225 10.8322 4.263 12.113 4.818 13.1292C4.95175 13.4165 5.29625 14.183 5.39775 14.566C5.742 15.864 6.27225 17.5437 7.31425 19.026C8.6775 20.9652 10.502 21.948 12.738 21.9478C12.775 21.9478 12.813 21.9475 12.8503 21.947C14.9015 21.917 16.4215 21.3805 17.4973 20.3062C18.7553 19.0495 19.4483 17.3997 19.4483 15.6562L19.4093 11.0195ZM16.648 19.4562C15.8045 20.2987 14.5568 20.7208 12.833 20.7458C12.8018 20.7463 12.7708 20.7465 12.7398 20.7465C9.74125 20.7465 7.71975 18.6227 6.56275 14.258C6.41275 13.6923 5.88525 12.5627 5.88525 12.5627C5.6375 12.1213 5.7955 11.5603 6.237 11.3127C6.451 11.1927 6.69875 11.1632 6.935 11.23C7.171 11.2965 7.36725 11.451 7.487 11.665L9.37175 14.8112C9.54225 15.0957 9.91125 15.1885 10.196 15.018C10.4808 14.8475 10.5675 14.4785 10.397 14.1938L9.25 12.2882V5.61275C9.25 5.28575 9.52725 5 9.8545 5H9.99625C10.3233 5 10.75 5.28575 10.75 5.61275V11.1558C10.75 11.4875 10.9183 11.7565 11.25 11.7565C11.5818 11.7565 11.75 11.4875 11.75 11.1558V3.776C11.75 3.449 11.9275 3 12.2545 3H12.507C12.8343 3 13 3.449 13 3.776V11.446C13 11.7778 13.2933 12.0468 13.625 12.0468C13.9568 12.0468 14.25 11.7778 14.25 11.446V5.264C14.2088 4.89225 14.4778 4.5 14.7918 4.5H14.9335C15.2605 4.5 15.5 4.9755 15.5 5.30275V12.0273C15.5 12.359 15.7933 12.628 16.125 12.628C16.4568 12.628 16.75 12.359 16.75 12.0273V7.8035C16.7188 7.1875 17.178 6.90075 17.5443 6.90075C17.9105 6.90075 18.25 7.199 18.25 7.56525V10.767L18.2685 15.6615C18.2685 17.0787 17.6788 18.4265 16.648 19.4562Z" fill="#64748B" stroke="#64748B" stroke-width="0.5"/>
</svg>
