<svg width="24" height="24" viewBox="0 0 24 24" fill="none" xmlns="http://www.w3.org/2000/svg">
<path d="M18.5625 22.5H5.4375C4.94022 22.5 4.46331 22.3025 4.11167 21.9508C3.76004 21.5992 3.5625 21.1223 3.5625 20.625V5.84625L7.90875 1.5H18.5625C19.0598 1.5 19.5367 1.69754 19.8883 2.04917C20.24 2.40081 20.4375 2.87772 20.4375 3.375V20.625C20.4375 21.1223 20.24 21.5992 19.8883 21.9508C19.5367 22.3025 19.0598 22.5 18.5625 22.5ZM4.3125 6.15375V20.625C4.3125 20.9234 4.43103 21.2095 4.642 21.4205C4.85298 21.6315 5.13913 21.75 5.4375 21.75H18.5625C18.8609 21.75 19.147 21.6315 19.358 21.4205C19.569 21.2095 19.6875 20.9234 19.6875 20.625V3.375C19.6875 3.07663 19.569 2.79048 19.358 2.5795C19.147 2.36853 18.8609 2.25 18.5625 2.25H8.21625L4.3125 6.15375Z" fill="#64748B" stroke="#64748B"/>
<path d="M6.65625 6.375H4.3125V5.625H6.65625C7.125 5.625 7.6875 5.25 7.6875 4.75125V2.25H8.4375V4.75125C8.4375 5.7075 7.5 6.375 6.65625 6.375Z" fill="#64748B" stroke="#64748B"/>
<path d="M8.21286 17.9999C8.03709 18.0018 7.86293 17.9681 7.70206 17.9012C7.5412 17.8342 7.39735 17.7355 7.28017 17.6117C7.07305 17.3561 6.97501 17.0363 7.00544 16.7157C7.03587 16.3951 7.19257 16.0969 7.44452 15.8802C7.82664 15.492 8.90314 15.0727 10.144 14.7155C10.4179 14.0478 10.7069 13.2273 11.0109 12.2542C10.6695 11.439 10.4751 10.5755 10.4357 9.69963C10.3782 8.65142 10.9699 8.05355 11.5821 8.00308C12.0669 7.96426 12.638 8.29037 12.7448 9.094C12.7878 9.46354 12.75 9.83748 12.6339 10.1927L12.4778 10.7013C12.3258 11.206 12.1737 11.7106 12.0176 12.2037C12.3339 12.8677 12.7643 13.4777 13.2913 14.009C13.8648 13.9044 14.4458 13.8408 15.0293 13.8187C16.225 13.8187 16.6728 14.3312 16.8536 14.634C16.9581 14.8143 17.0083 15.0181 16.9989 15.2234C16.9895 15.4287 16.9208 15.6276 16.8002 15.7987C16.6674 15.9789 16.4852 16.1214 16.2731 16.211C16.061 16.3007 15.827 16.3339 15.5963 16.3073C14.6095 16.1098 13.7046 15.6458 12.9914 14.9718C12.3052 15.1038 11.5615 15.2746 10.863 15.4609C10.4234 16.4897 9.98786 17.2429 9.56054 17.5263C9.17445 17.8129 8.70332 17.9784 8.21286 17.9999ZM9.68381 15.8026C9.126 15.9445 8.60081 16.1827 8.1348 16.5053C7.92936 16.7149 7.9006 16.9401 7.99099 17.041C8.08138 17.1419 8.44706 17.173 9.01408 16.7964C9.31155 16.5154 9.54017 16.1761 9.68381 15.8026ZM14.2035 14.7738C14.6383 15.0984 15.1502 15.3182 15.695 15.4143C15.756 15.4261 15.8193 15.4218 15.878 15.402C15.9367 15.3821 15.9885 15.3475 16.0278 15.3017C16.0518 15.265 16.0645 15.2226 16.0645 15.1795C16.0645 15.1363 16.0518 15.0939 16.0278 15.0572C15.9826 14.9756 15.7812 14.7194 15.0334 14.7155C14.7569 14.7225 14.481 14.7458 14.2076 14.7854L14.2035 14.7738ZM11.6232 13.415C11.4999 13.7683 11.3807 14.1099 11.2616 14.436C11.5862 14.3545 11.9108 14.2807 12.2313 14.2147C12.0113 13.9611 11.8096 13.6939 11.6273 13.415H11.6232ZM11.6601 8.90765C11.5656 8.90765 11.352 9.14835 11.3766 9.6841C11.3946 10.0255 11.4371 10.3653 11.504 10.7013C11.5245 10.6275 11.5492 10.5576 11.5697 10.4839L11.7259 9.97139C11.8054 9.73322 11.8334 9.48236 11.808 9.23376C11.7752 8.9853 11.6848 8.90765 11.6642 8.90765H11.6601Z" fill="#64748B" stroke="#64748B" stroke-width="0.2"/>
</svg>
