<svg width="20" height="20" viewBox="0 0 20 20" fill="none" xmlns="http://www.w3.org/2000/svg">
<g clip-path="url(#clip0_364_1334)">
<path d="M19.6733 14.1775L17.3399 5.76083C16.8711 4.06774 15.8491 2.58023 14.4369 1.53525C13.0246 0.490275 11.3033 -0.0520673 9.54712 -0.00538734C7.79092 0.0412926 6.10085 0.67431 4.74611 1.79283C3.39137 2.91136 2.44988 4.45105 2.07161 6.16667L0.267445 14.2833C0.199808 14.5879 0.201436 14.9038 0.272209 15.2076C0.342983 15.5115 0.481095 15.7955 0.676349 16.0389C0.871603 16.2822 1.11901 16.4786 1.40032 16.6135C1.68162 16.7484 1.98963 16.8184 2.30161 16.8183H5.75411C6.01931 17.7354 6.57531 18.5415 7.33838 19.1152C8.10146 19.6889 9.03028 19.9991 9.98495 19.9991C10.9396 19.9991 11.8684 19.6889 12.6315 19.1152C13.3946 18.5415 13.9506 17.7354 14.2158 16.8183H17.6666C17.9878 16.8184 18.3046 16.7441 18.5923 16.6014C18.8801 16.4587 19.1309 16.2515 19.3253 15.9958C19.5197 15.7401 19.6523 15.4429 19.7128 15.1275C19.7733 14.8121 19.7592 14.487 19.6733 14.1775ZM2.82078 14.3183L4.51245 6.70417C4.77154 5.53422 5.41457 4.48458 6.33915 3.72232C7.26373 2.96006 8.41674 2.529 9.61462 2.49776C10.8125 2.46652 11.9864 2.8369 12.9495 3.54992C13.9125 4.26295 14.6094 5.27765 14.9291 6.4325L17.1191 14.3183H2.82078Z" fill="#64748B"/>
</g>
<defs>
<clipPath id="clip0_364_1334">
<rect width="20" height="20" fill="white"/>
</clipPath>
</defs>
</svg>
