<svg width="20" height="20" viewBox="0 0 20 20" fill="none" xmlns="http://www.w3.org/2000/svg">
<g clip-path="url(#clip0_364_1325)">
<path d="M2.57197 8.9034C3.17543 4.80255 6.98901 1.96736 11.0899 2.57081C12.489 2.77669 13.8015 3.37369 14.8761 4.29302L13.9087 5.26043C13.5845 5.58475 13.5845 6.11056 13.9089 6.4348C14.0646 6.59043 14.2757 6.67789 14.4958 6.67793H18.3041C18.7627 6.67793 19.1344 6.30615 19.1344 5.84754V2.03929C19.1343 1.58067 18.7625 1.20898 18.3039 1.20906C18.0837 1.20909 17.8726 1.29656 17.7169 1.45218L16.6374 2.5317C12.5206 -1.13798 6.20848 -0.775584 2.53881 3.34114C1.23874 4.79955 0.395079 6.60732 0.112326 8.5405C0.00084433 9.22586 0.466039 9.87182 1.15136 9.9833C1.21309 9.99334 1.27545 9.99875 1.338 9.99953C1.96501 9.99276 2.49132 9.52523 2.57197 8.9034Z" fill="#64748B"/>
<path d="M18.6618 9.99953C18.0348 10.0063 17.5085 10.4738 17.4279 11.0957C16.8244 15.1965 13.0108 18.0317 8.90999 17.4283C7.51087 17.2224 6.19839 16.6254 5.12374 15.7061L6.09115 14.7387C6.41539 14.4144 6.41532 13.8885 6.09095 13.5643C5.93529 13.4087 5.72416 13.3212 5.50404 13.3212H1.69587C1.23725 13.3212 0.865479 13.693 0.865479 14.1516V17.9598C0.865595 18.4184 1.23745 18.7901 1.69606 18.79C1.91619 18.79 2.12732 18.7025 2.28298 18.5469L3.36249 17.4674C7.47825 21.1375 13.7899 20.7762 17.46 16.6604C18.7608 15.2017 19.6048 13.3933 19.8875 11.4594C19.9995 10.7741 19.5347 10.1279 18.8495 10.0159C18.7874 10.0058 18.7247 10.0003 18.6618 9.99953Z" fill="#64748B"/>
</g>
<defs>
<clipPath id="clip0_364_1325">
<rect width="20" height="20" fill="white"/>
</clipPath>
</defs>
</svg>
