<svg width="26" height="18" viewBox="0 0 26 18" fill="none" xmlns="http://www.w3.org/2000/svg">
<path d="M26 1.39274C26 1.02336 25.8532 0.669114 25.5921 0.407926C25.3309 0.146738 24.9766 4.38157e-06 24.6072 4.38157e-06H7.33737C7.12845 -0.000521127 6.92212 0.0462305 6.73383 0.136758C6.54554 0.227285 6.38017 0.359241 6.25011 0.522743L0.30779 7.95065C0.108645 8.19687 0 8.50396 0 8.82064C0 9.13732 0.108645 9.44441 0.30779 9.69063L6.25011 17.1185C6.38017 17.282 6.54554 17.414 6.73383 17.5045C6.92212 17.595 7.12845 17.6418 7.33737 17.6413H24.6072C24.9766 17.6413 25.3309 17.4945 25.5921 17.2334C25.8532 16.9722 26 16.6179 26 16.2485V1.39274ZM20.293 13.1349C20.3374 13.1777 20.3727 13.2289 20.3971 13.2855C20.4214 13.3422 20.4342 13.4031 20.4347 13.4647C20.4353 13.5264 20.4235 13.5875 20.4002 13.6446C20.3768 13.7016 20.3424 13.7535 20.2988 13.7971C20.2552 13.8406 20.2034 13.8751 20.1463 13.8985C20.0893 13.9218 20.0281 13.9335 19.9665 13.933C19.9048 13.9325 19.8439 13.9197 19.7873 13.8953C19.7306 13.871 19.6794 13.8356 19.6366 13.7913L15.3224 9.47708L11.0081 13.7913C10.9206 13.8759 10.8033 13.9227 10.6816 13.9216C10.5599 13.9205 10.4434 13.8717 10.3574 13.7856C10.2713 13.6996 10.2225 13.5831 10.2214 13.4614C10.2203 13.3397 10.2671 13.2224 10.3517 13.1349L14.6659 8.82064L10.3517 4.50642C10.2671 4.41886 10.2203 4.30159 10.2214 4.17987C10.2225 4.05815 10.2713 3.94171 10.3574 3.85563C10.4434 3.76956 10.5599 3.72074 10.6816 3.71968C10.8033 3.71862 10.9206 3.76541 11.0081 3.84998L15.3224 8.1642L19.6366 3.84998C19.7241 3.76541 19.8414 3.71862 19.9631 3.71968C20.0849 3.72074 20.2013 3.76956 20.2874 3.85563C20.3734 3.94171 20.4223 4.05815 20.4233 4.17987C20.4244 4.30159 20.3776 4.41886 20.293 4.50642L15.9788 8.82064L20.293 13.1349Z" fill="#9B9B9B"/>
</svg>
