<svg width="28" height="18" viewBox="0 0 28 18" fill="none" xmlns="http://www.w3.org/2000/svg">
<path d="M3.49357 16.8514H15.0018C15.6553 16.8494 16.2814 16.5709 16.7435 16.0767C17.2055 15.5826 17.466 14.9129 17.4679 14.2141V3.66484C17.466 2.96599 17.2055 2.29635 16.7435 1.8022C16.2814 1.30805 15.6553 1.02955 15.0018 1.02753H3.49357C2.84014 1.02955 2.21401 1.30805 1.75195 1.8022C1.28989 2.29635 1.02945 2.96599 1.02752 3.66484V14.2141C1.02946 14.9129 1.2899 15.5826 1.75196 16.0767C2.21402 16.5709 2.84014 16.8494 3.49357 16.8514ZM7.60365 2.78574H10.8917V6.41643L9.69977 5.57249C9.56634 5.47575 9.40886 5.42404 9.24766 5.42404C9.08647 5.42404 8.92898 5.47575 8.79556 5.57249L7.60363 6.41643L7.60365 2.78574Z" stroke="#2B8383" stroke-width="2"/>
<path d="M23.1554 10.6869L22.4399 10.0204H27.1914C27.3379 10.0199 27.4782 9.96541 27.5816 9.86878C27.685 9.77214 27.7431 9.64126 27.7431 9.50481C27.7431 9.36836 27.685 9.23747 27.5816 9.14084C27.4782 9.0442 27.3379 8.98969 27.1914 8.98926H22.4398L23.1554 8.32267C23.2559 8.22539 23.3115 8.09525 23.3101 7.96022C23.3087 7.8252 23.2505 7.69606 23.148 7.60057C23.0455 7.50509 22.9069 7.45087 22.762 7.44957C22.617 7.44828 22.4773 7.5 22.3728 7.59364L20.7126 9.14029C20.6612 9.18815 20.6204 9.24497 20.5926 9.30751C20.5648 9.37006 20.5505 9.43709 20.5505 9.50479C20.5505 9.57249 20.5648 9.63953 20.5926 9.70207C20.6204 9.76462 20.6612 9.82144 20.7126 9.8693L22.3728 11.4159C22.4773 11.5094 22.617 11.561 22.7618 11.5596C22.9067 11.5582 23.0452 11.504 23.1476 11.4086C23.25 11.3132 23.3082 11.1842 23.3097 11.0492C23.3111 10.9143 23.2557 10.7842 23.1554 10.6869Z" fill="#2B8383" stroke="#2B8383" stroke-width="0.5"/>
<path d="M25.1382 14.4874L25.8537 15.154H21.1022C20.9557 15.1544 20.8154 15.2089 20.7119 15.3055C20.6085 15.4022 20.5505 15.5331 20.5505 15.6695C20.5505 15.806 20.6085 15.9369 20.7119 16.0335C20.8154 16.1301 20.9557 16.1846 21.1022 16.1851H25.8537L25.1382 16.8517C25.0376 16.9489 24.9821 17.0791 24.9835 17.2141C24.9849 17.3491 25.0431 17.4783 25.1456 17.5738C25.248 17.6692 25.3867 17.7235 25.5316 17.7248C25.6766 17.7261 25.8163 17.6743 25.9207 17.5807L27.581 16.034C27.6324 15.9862 27.6732 15.9294 27.701 15.8668C27.7288 15.8043 27.7431 15.7372 27.7431 15.6695C27.7431 15.6018 27.7288 15.5348 27.701 15.4723C27.6732 15.4097 27.6324 15.3529 27.581 15.305L25.9207 13.7584C25.8163 13.6649 25.6766 13.6133 25.5318 13.6147C25.3869 13.6161 25.2484 13.6703 25.146 13.7657C25.0436 13.8611 24.9854 13.9902 24.9839 14.1251C24.9825 14.26 25.0379 14.3901 25.1382 14.4874Z" fill="#2B8383" stroke="#2B8383" stroke-width="0.5"/>
</svg>
