<svg width="16" height="13" viewBox="0 0 16 13" fill="none" xmlns="http://www.w3.org/2000/svg">
<path d="M15.1776 6.4947C15.1723 5.92434 14.9425 5.37904 14.538 4.97694L9.88712 0.315253C9.684 0.113335 9.40923 0 9.12282 0C8.83641 0 8.56164 0.113335 8.35852 0.315253C8.25691 0.416035 8.17625 0.535939 8.12122 0.668049C8.06618 0.800158 8.03784 0.941858 8.03784 1.08497C8.03784 1.22809 8.06618 1.36979 8.12122 1.5019C8.17625 1.63401 8.25691 1.75391 8.35852 1.85469L11.9253 5.41059H1.08411C0.796589 5.41059 0.520841 5.52481 0.31753 5.72812C0.114219 5.93143 0 6.20718 0 6.4947C0 6.78223 0.114219 7.05797 0.31753 7.26129C0.520841 7.4646 0.796589 7.57882 1.08411 7.57882H11.9253L8.35852 11.1456C8.15438 11.3483 8.03912 11.6238 8.0381 11.9114C8.03709 12.1991 8.15039 12.4754 8.3531 12.6796C8.5558 12.8837 8.8313 12.999 9.11899 13C9.40667 13.001 9.68298 12.8877 9.88712 12.685L14.538 8.0233C14.9451 7.61855 15.1752 7.06882 15.1776 6.4947Z" fill="#278E05"/>
</svg>
