<svg width="98" height="98" viewBox="0 0 98 98" fill="none" xmlns="http://www.w3.org/2000/svg">
<path d="M47.1637 13.7012V7.06708C47.1637 6.46262 47.6541 5.97205 48.2587 5.97205C48.8634 5.97205 49.3538 6.46243 49.3538 7.06708V13.7012C49.3538 14.3057 48.8634 14.7963 48.2587 14.7963C47.6541 14.7963 47.1637 14.3057 47.1637 13.7012Z" fill="#BDBDBD"/>
<path d="M54.9953 14.6087C54.4942 14.2701 54.3616 13.59 54.6994 13.0882L59.1714 6.45478C59.5108 5.95292 60.1893 5.8218 60.6919 6.15887C61.193 6.49747 61.3257 7.17753 60.9878 7.6794L56.516 14.3128C56.1799 14.8106 55.5016 14.9481 54.9953 14.6087Z" fill="#BDBDBD"/>
<path d="M40.0029 14.3135L35.5303 7.68011C35.1925 7.17825 35.3249 6.49818 35.8262 6.15958C36.3289 5.82386 37.0074 5.95286 37.3467 6.4555L41.8193 13.0889C42.1572 13.5907 42.0247 14.2708 41.5234 14.6094C41.017 14.949 40.3386 14.811 40.0029 14.3135Z" fill="#BDBDBD"/>
<path d="M2.28069 51.6132H2.67498V30.0054C2.67498 29.4069 3.15675 28.9103 3.77001 28.9103H12.2087V26.2971C12.2087 25.6986 12.7052 25.202 13.3038 25.202H23.7572C24.3703 25.202 24.8523 25.6986 24.8523 26.2971V28.9103H31.8164L34.9991 22.0777C35.8166 20.3112 37.5978 19.1724 39.5396 19.1724H56.9718C58.9281 19.1724 60.7094 20.3112 61.5268 22.0777L64.695 28.9103H87.2517C90.887 28.9103 93.8508 31.8741 93.8508 35.5095V78.2139H95.7197C96.3182 78.2139 96.8147 78.7104 96.8147 79.3089C96.8147 79.922 96.3182 80.404 95.7197 80.404H93.8508V90.9158C93.8508 91.5289 93.3545 92.0109 92.7557 92.0109C4.00353 91.967 9.17188 92.1422 7.9308 91.8794C4.93778 91.2663 2.67498 88.609 2.67498 85.4263C2.67498 85.0467 2.67498 84.9154 2.67498 84.9154V53.8031H2.28069C1.68196 53.8031 1.18565 53.3213 1.18565 52.7081C1.18565 52.1095 1.68196 51.6132 2.28069 51.6132ZM22.662 27.3921H14.3984V28.9105H22.662V27.3921ZM59.541 22.9976C59.0738 22.0048 58.0664 21.3624 56.9716 21.3624H39.5394C38.4444 21.3624 37.437 22.0048 36.9846 22.9976L34.2398 28.9105H62.2858L59.541 22.9976ZM4.86485 85.4263C4.86485 87.5433 6.36854 89.3245 8.36874 89.7333C9.20097 89.9085 3.90112 89.7917 91.6462 89.821V80.404H60.2858C56.7673 82.5357 52.6647 83.7911 48.2555 83.7911C43.861 83.7911 39.7439 82.5355 36.24 80.404H4.86504V85.4263H4.86485ZM69.3814 60.4752C69.3814 48.8244 59.906 39.3493 48.2555 39.3493C36.6195 39.3493 27.1296 48.8244 27.1296 60.4752C27.1296 72.1259 36.6195 81.601 48.2555 81.601C59.906 81.6012 69.3814 72.1259 69.3814 60.4752ZM4.86485 41.9189H34.2105C38.1232 38.9404 42.9849 37.1594 48.2555 37.1594C53.5406 37.1594 58.4023 38.9406 62.3151 41.9189H91.6607V35.5097C91.6607 33.0715 89.6752 31.1004 87.2517 31.1004H13.3036H4.86485V41.9189Z" fill="#BDBDBD"/>
<path d="M48.2555 45.7587C56.3731 45.7587 62.9722 52.3578 62.9722 60.4751C62.9722 68.5781 56.3731 75.1772 48.2555 75.1772C40.1527 75.1772 33.5534 68.5781 33.5534 60.4751C33.5534 52.3578 40.1525 45.7587 48.2555 45.7587ZM51.7303 66.9575C52.0953 67.4393 52.7815 67.5269 53.2633 67.1765C57.2053 64.2127 57.7747 58.5188 54.4605 54.8543C54.0517 54.4016 53.3655 54.3725 52.913 54.7814C52.4603 55.1757 52.4312 55.8764 52.8401 56.3289C53.862 57.4676 54.4314 58.9422 54.4314 60.4751C54.4314 62.4315 53.5263 64.2418 51.9495 65.4245C51.4675 65.775 51.3798 66.4612 51.7303 66.9575ZM48.2555 54.2996C48.9417 54.2996 49.6134 54.4018 50.2703 54.6353C50.8251 54.8252 51.4528 54.5331 51.6572 53.9491C51.8471 53.3797 51.5404 52.7519 50.971 52.5622C50.0951 52.2556 49.1898 52.1095 48.2555 52.1095C47.657 52.1095 47.1605 52.5913 47.1605 53.2046C47.1605 53.8031 47.657 54.2996 48.2555 54.2996Z" fill="#BDBDBD"/>
</svg>
