<svg width="39" height="38" viewBox="0 0 39 38" fill="none" xmlns="http://www.w3.org/2000/svg">
<g clip-path="url(#clip0_447_1617)">
<path fill-rule="evenodd" clip-rule="evenodd" d="M37.3256 1.58337H1.67441C1.34667 1.58337 1.05534 1.71083 0.845951 1.92022C0.63656 2.12961 0.5 2.43915 0.5 2.75779V20.292C0.5 20.6107 0.627456 20.9111 0.836847 21.1205C1.04624 21.3299 1.34667 21.4665 1.67441 21.4665H37.3256C37.6533 21.4665 37.9447 21.3299 38.154 21.1205C38.3725 20.9111 38.5 20.6107 38.5 20.292V2.75779C38.5 2.43915 38.3634 2.13872 38.154 1.92933C37.9447 1.71993 37.6533 1.58337 37.3256 1.58337ZM19.5 5.51629C22.8138 5.51629 25.4995 8.21107 25.4995 11.5249C25.4995 14.8388 22.8138 17.5244 19.5 17.5244C16.1861 17.5244 13.5005 14.8388 13.5005 11.5249C13.5005 8.21107 16.1861 5.51629 19.5 5.51629ZM17.2513 10.0592C17.2513 9.05774 17.9068 8.293 18.8445 8.01989V7.25515C18.8445 7.10038 18.972 6.96382 19.1267 6.96382H19.8733C20.028 6.96382 20.1555 7.10038 20.1555 7.25515V7.98347C20.3285 8.02899 20.5014 8.09272 20.6653 8.18376C21.248 8.5115 21.5939 9.07595 21.7123 9.73143C21.7214 9.82247 21.7032 9.90441 21.6394 9.96814C21.5848 10.0319 21.512 10.0683 21.4209 10.0683H20.7472C20.6198 10.0683 20.5014 9.98634 20.465 9.86799C20.2101 9.01222 18.6078 8.92118 18.6078 9.96814C18.6078 10.5417 19.3543 10.7602 19.7913 10.9149C20.8292 11.2973 21.7487 11.6979 21.7487 12.9816C21.7487 13.9921 21.0932 14.7477 20.1555 15.0299V15.7856C20.1555 15.9494 20.028 16.0769 19.8733 16.0769H19.1267C18.972 16.0769 18.8445 15.9494 18.8445 15.7856V15.0573C18.6715 15.0117 18.4986 14.9571 18.3347 14.8661C17.752 14.5383 17.4061 13.9648 17.2877 13.3093C17.2786 13.2274 17.2968 13.1454 17.3515 13.0726C17.4152 13.0089 17.488 12.9724 17.5791 12.9724H18.2528C18.3802 12.9724 18.4986 13.0544 18.535 13.1818C18.7899 14.0376 20.3922 14.1287 20.3922 13.0726C20.3922 12.4626 19.5364 12.2441 19.0812 12.0803C18.0798 11.7161 17.2513 11.2791 17.2513 10.0592ZM10.041 10.0137C10.8694 10.0137 11.5431 10.6874 11.5431 11.5249C11.5431 12.3534 10.8694 13.0362 10.041 13.0362C9.2034 13.0362 8.52971 12.3534 8.52971 11.5249C8.52971 10.6874 9.2034 10.0137 10.041 10.0137ZM28.959 10.0137C29.7966 10.0137 30.4703 10.6874 30.4703 11.5249C30.4703 12.3534 29.7966 13.0362 28.959 13.0362C28.1306 13.0362 27.4569 12.3534 27.4569 11.5249C27.4569 10.6874 28.1306 10.0137 28.959 10.0137ZM4.99736 3.87758H34.0026C34.0026 4.92453 34.8129 5.7712 35.8143 5.7712V17.2786C34.8129 17.2786 34.0026 18.1253 34.0026 19.1632C28.34 19.1632 10.66 19.1632 4.99736 19.1632C4.99736 18.1253 4.18711 17.2786 3.18567 17.2786V5.7712C4.18711 5.7712 4.99736 4.92453 4.99736 3.87758Z" fill="white"/>
<path fill-rule="evenodd" clip-rule="evenodd" d="M19.9035 37.8075L24.1199 32.8435C24.2587 32.6795 24.288 32.4584 24.2003 32.2587C24.1126 32.0518 23.9299 31.9306 23.718 31.9306H21.5769V25.8897C21.5769 25.583 21.3358 25.3334 21.0362 25.3334H17.9597C17.6674 25.3334 17.4263 25.583 17.4263 25.8897V31.9306H15.2852C15.0733 31.9306 14.8906 32.0518 14.8029 32.2587C14.7079 32.4584 14.7445 32.6795 14.8833 32.8435L19.0997 37.8075C19.202 37.9359 19.3408 38 19.5016 38C19.6624 38 19.8012 37.9359 19.9035 37.8075Z" fill="white"/>
</g>
<defs>
<clipPath id="clip0_447_1617">
<rect width="38" height="38" fill="white" transform="translate(0.5)"/>
</clipPath>
</defs>
</svg>
