<svg width="28" height="32" viewBox="0 0 28 32" fill="none" xmlns="http://www.w3.org/2000/svg">
<path d="M11.6147 14.2529C15.2689 14.2529 18.2411 11.2801 18.2411 7.62649C18.2411 3.97291 15.2689 1 11.6147 1C7.96105 1 4.98826 3.97285 4.98826 7.62643C4.98826 11.28 7.96105 14.2529 11.6147 14.2529ZM11.6147 3.65059C13.8071 3.65059 15.5906 5.43401 15.5906 7.62649C15.5906 9.81896 13.8071 11.6024 11.6147 11.6024C9.4222 11.6024 7.63879 9.81896 7.63879 7.62649C7.63879 5.43401 9.42226 3.65059 11.6147 3.65059Z" fill="white" stroke="white" stroke-width="0.5"/>
<path d="M4.98817 27.5058H11.6146C12.3471 27.5058 12.9399 26.9124 12.9399 26.1805C12.9399 25.4487 12.3471 24.8552 11.6146 24.8552H4.98817C4.25756 24.8552 3.66287 24.2612 3.66287 23.5299C3.66287 21.3375 5.44628 19.554 7.63876 19.554H15.5905C15.9283 19.554 16.2634 19.5961 16.5864 19.6796C17.2949 19.8608 18.0171 19.435 18.1996 18.7257C18.3821 18.0172 17.955 17.2943 17.2464 17.1118C16.708 16.9733 16.1509 16.9034 15.5905 16.9034H7.63876C3.98513 16.9034 1.01234 19.8763 1.01234 23.5299C1.01234 25.7224 2.79576 27.5058 4.98817 27.5058Z" fill="white" stroke="white" stroke-width="0.5"/>
<path d="M22.6145 20.7846C22.0955 20.2669 21.2569 20.2688 20.7405 20.7871C20.2241 21.3061 20.2254 22.1448 20.7437 22.6612L22.4618 24.3734H17.7029C16.9717 24.3734 16.3776 24.9668 16.3776 25.6987C16.3776 26.4306 16.9717 27.024 17.7029 27.024H22.4553L20.7417 28.7376C20.224 29.2553 20.224 30.094 20.7417 30.6116C21.0006 30.8705 21.3396 30.9999 21.6787 30.9999C22.0178 30.9999 22.3576 30.8705 22.6158 30.6116L26.5994 26.6287C26.8479 26.3795 26.9877 26.0424 26.9877 25.6903C26.987 25.339 26.8466 25.0012 26.5975 24.7527L22.6145 20.7846Z" fill="white" stroke="white" stroke-width="0.5"/>
</svg>
