<svg width="19" height="18" viewBox="0 0 19 18" fill="none" xmlns="http://www.w3.org/2000/svg">
<path d="M10.8546 0.137085H4.2417C3.60186 0.140601 3.08506 0.657397 3.08154 1.29724V16.7027C3.08154 17.3426 3.60186 17.8594 4.23818 17.8594H15.8538C16.4937 17.8594 17.0104 17.339 17.014 16.7027L16.9823 5.25935L10.8546 0.137085Z" fill="#EAEAEA"/>
<path d="M15.8537 18H4.2416C3.52441 18 2.94434 17.4199 2.94434 16.7027V1.29727C2.94434 0.580078 3.52441 0 4.2416 0H10.9072L17.1229 5.19609L17.1545 16.7027C17.151 17.4199 16.5709 18 15.8537 18ZM4.2416 0.277734C3.6791 0.277734 3.22207 0.734766 3.22207 1.29727V16.7027C3.22207 17.2652 3.6791 17.7223 4.2416 17.7223H15.8572C16.4197 17.7223 16.8768 17.2652 16.8768 16.7027L16.8451 5.32617L10.8053 0.277734H4.2416Z" fill="#2F9ED2"/>
<path d="M10.8545 0.137085L10.8369 5.13982C10.8369 5.13982 10.8545 5.25935 10.96 5.25935H16.9822L10.8545 0.137085Z" fill="#2F9ED2"/>
<path d="M1.97764 8.68005H13.6495C13.9132 8.68005 14.1276 8.89451 14.1276 9.15818V14.3613C14.1276 14.625 13.9132 14.8394 13.6495 14.8394H1.97764C1.71396 14.8394 1.49951 14.625 1.49951 14.3613V9.15818C1.49951 8.89099 1.71396 8.68005 1.97764 8.68005Z" fill="#2F9ED2"/>
<path d="M4.10107 10.4941H5.4335C5.72529 10.4941 5.93975 10.5645 6.08389 10.7016C6.22803 10.8387 6.30186 11.0355 6.30186 11.2922C6.30186 11.5523 6.22451 11.7598 6.06631 11.9074C5.90811 12.0551 5.66904 12.1289 5.34561 12.1289H4.90967V13.0922H4.10459V10.4941H4.10107ZM4.90615 11.598H5.10303C5.25771 11.598 5.3667 11.5699 5.42998 11.5172C5.48975 11.468 5.5249 11.3906 5.5249 11.3098C5.5249 11.2324 5.49678 11.1586 5.44404 11.1023C5.39131 11.0461 5.28936 11.018 5.13818 11.018H4.90967L4.90615 11.598Z" fill="white"/>
<path d="M6.73096 10.4941H7.92275C8.1583 10.4941 8.34814 10.5258 8.49229 10.5891C8.63291 10.6488 8.75596 10.7437 8.85088 10.8633C8.9458 10.9863 9.01611 11.127 9.05479 11.2781C9.09697 11.4434 9.11807 11.6121 9.11807 11.7809C9.11807 12.0586 9.08643 12.273 9.02314 12.4242C8.96338 12.5684 8.87549 12.702 8.75947 12.8074C8.65752 12.9059 8.53447 12.9762 8.39736 13.0148C8.24268 13.0605 8.08096 13.0816 7.91924 13.0852H6.73096V10.4941ZM7.53252 11.0813V12.498H7.72939C7.89814 12.498 8.01416 12.4805 8.08799 12.4418C8.16533 12.3996 8.22158 12.3293 8.25322 12.2484C8.29189 12.157 8.31299 12.0059 8.31299 11.7984C8.31299 11.5242 8.26729 11.3344 8.17939 11.2359C8.0915 11.134 7.94033 11.0848 7.73291 11.0848L7.53252 11.0813Z" fill="white"/>
<path d="M9.54307 10.4941H11.5224V11.0496H10.3446V11.5031H11.3501V12.027H10.3446V13.0852H9.53955V10.4941H9.54307Z" fill="white"/>
</svg>
