<svg width="32" height="34" viewBox="0 0 32 34" fill="none" xmlns="http://www.w3.org/2000/svg">
<path d="M27.5769 33H4.42306C3.54581 33 2.70448 32.699 2.08417 32.1632C1.46386 31.6273 1.11537 30.9006 1.11537 30.1429V7.62286L8.7826 1H27.5769C28.4542 1 29.2955 1.30102 29.9158 1.83684C30.5361 2.37266 30.8846 3.09938 30.8846 3.85714V30.1429C30.8846 30.9006 30.5361 31.6273 29.9158 32.1632C29.2955 32.699 28.4542 33 27.5769 33ZM2.43845 8.09143V30.1429C2.43845 30.5975 2.64754 31.0336 3.01973 31.355C3.39192 31.6765 3.89671 31.8571 4.42306 31.8571H27.5769C28.1033 31.8571 28.6081 31.6765 28.9802 31.355C29.3524 31.0336 29.5615 30.5975 29.5615 30.1429V3.85714C29.5615 3.40249 29.3524 2.96645 28.9802 2.64496C28.6081 2.32347 28.1033 2.14286 27.5769 2.14286H9.32506L2.43845 8.09143Z" fill="white" stroke="white" stroke-width="2"/>
<path d="M8.33215 11H3.3205V9.54545H8.33215C9.33449 9.54545 10.5373 8.81818 10.5373 7.85091V3H12.141V7.85091C12.141 9.70545 10.1364 11 8.33215 11Z" fill="white" stroke="white" stroke-width="2"/>
<path d="M10.5718 24.9999C10.3198 25.0023 10.0702 24.9586 9.83961 24.8715C9.60904 24.7845 9.40285 24.6562 9.2349 24.4952C8.93802 24.1629 8.7975 23.7472 8.84112 23.3304C8.88474 22.9136 9.10934 22.526 9.47047 22.2443C10.0182 21.7396 11.5612 21.1945 13.3397 20.7302C13.7323 19.8621 14.1465 18.7955 14.5823 17.5304C14.0929 16.4707 13.8143 15.3482 13.7578 14.2095C13.6754 12.8468 14.5234 12.0696 15.4009 12.004C16.0959 11.9535 16.9145 12.3775 17.0676 13.4222C17.1292 13.9026 17.075 14.3887 16.9086 14.8505L16.6848 15.5116C16.4669 16.1677 16.249 16.8238 16.0252 17.4648C16.4785 18.328 17.0954 19.121 17.8509 19.8116C18.6728 19.6758 19.5056 19.5931 20.342 19.5643C22.0558 19.5643 22.6977 20.2305 22.9569 20.6242C23.1065 20.8585 23.1785 21.1235 23.1651 21.3904C23.1516 21.6573 23.0531 21.9159 22.8803 22.1383C22.69 22.3725 22.4288 22.5579 22.1247 22.6744C21.8207 22.7908 21.4853 22.8341 21.1547 22.7994C19.7403 22.5427 18.4432 21.9396 17.421 21.0633C16.4375 21.2349 15.3715 21.4569 14.3703 21.6992C13.7402 23.0366 13.1159 24.0157 12.5034 24.3842C11.95 24.7567 11.2747 24.972 10.5718 24.9999ZM12.6801 22.1433C11.8806 22.3278 11.1278 22.6375 10.4599 23.0568C10.1654 23.3294 10.1242 23.6221 10.2537 23.7533C10.3833 23.8845 10.9074 23.9249 11.7202 23.4353C12.1465 23.07 12.4742 22.629 12.6801 22.1433ZM19.1583 20.8059C19.7816 21.2279 20.5153 21.5137 21.2961 21.6386C21.3836 21.6539 21.4744 21.6484 21.5585 21.6226C21.6426 21.5968 21.7168 21.5517 21.7731 21.4923C21.8075 21.4445 21.8257 21.3894 21.8257 21.3333C21.8257 21.2771 21.8075 21.2221 21.7731 21.1743C21.7083 21.0683 21.4198 20.7352 20.3479 20.7302C19.9515 20.7393 19.5562 20.7696 19.1642 20.821L19.1583 20.8059ZM15.4598 19.0395C15.2832 19.4987 15.1124 19.9429 14.9416 20.3668C15.4068 20.2608 15.8721 20.1649 16.3314 20.0791C16.0162 19.7494 15.727 19.4021 15.4657 19.0395H15.4598ZM15.5128 13.1799C15.3774 13.1799 15.0711 13.4929 15.1065 14.1893C15.1322 14.6331 15.1932 15.0749 15.289 15.5116C15.3185 15.4157 15.3538 15.3249 15.3833 15.229L15.6071 14.5628C15.7211 14.2532 15.7611 13.9271 15.7249 13.6039C15.6777 13.2809 15.5482 13.1799 15.5187 13.1799H15.5128Z" fill="white" stroke="white"/>
</svg>
