<svg width="30" height="30" viewBox="0 0 30 30" fill="none" xmlns="http://www.w3.org/2000/svg">
<g clip-path="url(#clip0_447_1640)">
<path d="M27.9188 17.2913C27.1538 20.3575 24.4101 22.5 21.2501 22.5H8.98508C6.80133 22.5 4.93633 20.8675 4.64883 18.7038L2.72758 4.2925C2.68633 3.98375 2.42008 3.75 2.10758 3.75H1.87383C0.837583 3.75 -0.0011673 2.91 -0.0011673 1.875C-0.0011673 0.84 0.838833 0 1.87508 0H2.10883C4.29258 0 6.15758 1.6325 6.44508 3.79625L6.77258 6.25H13.1263C14.1626 6.25 15.0013 7.09 15.0013 8.125C15.0013 9.16 14.1626 10 13.1263 10H7.27133L8.36508 18.2075C8.40633 18.5163 8.67258 18.75 8.98508 18.75H21.2501C22.6863 18.75 23.9326 17.7775 24.2813 16.3825C24.5313 15.3775 25.5463 14.765 26.5538 15.0175C27.5588 15.2675 28.1701 16.2862 27.9188 17.29V17.2913ZM30.0001 6.25C30.0001 9.70125 27.2013 12.5 23.7501 12.5C20.2988 12.5 17.5001 9.70125 17.5001 6.25C17.5001 2.79875 20.2988 0 23.7501 0C27.2013 0 30.0001 2.79875 30.0001 6.25ZM26.2501 6.9825L25.0001 5.7325V3.75C25.0001 3.06 24.4401 2.5 23.7501 2.5C23.0601 2.5 22.5001 3.06 22.5001 3.75V6.25C22.5001 6.58125 22.6313 6.9 22.8663 7.13375L24.4826 8.75C24.9713 9.2375 25.7626 9.2375 26.2501 8.75C26.7388 8.26125 26.7388 7.47 26.2501 6.9825ZM8.75008 25C7.36883 25 6.25008 26.1187 6.25008 27.5C6.25008 28.8813 7.36883 30 8.75008 30C10.1313 30 11.2501 28.8813 11.2501 27.5C11.2501 26.1187 10.1313 25 8.75008 25ZM21.2501 25C19.8688 25 18.7501 26.1187 18.7501 27.5C18.7501 28.8813 19.8688 30 21.2501 30C22.6313 30 23.7501 28.8813 23.7501 27.5C23.7501 26.1187 22.6313 25 21.2501 25Z" fill="white"/>
</g>
<defs>
<clipPath id="clip0_447_1640">
<rect width="30" height="30" fill="white"/>
</clipPath>
</defs>
</svg>
