<svg width="18" height="18" viewBox="0 0 18 18" fill="none" xmlns="http://www.w3.org/2000/svg">
<path d="M17.671 16.0839L14.1871 12.5986C16.7939 9.115 16.0831 4.17775 12.5996 1.57096C9.11598 -1.03583 4.17873 -0.325041 1.57194 3.15854C-1.03485 6.64212 -0.324064 11.5794 3.15952 14.1862C5.95782 16.2802 9.80122 16.2802 12.5996 14.1862L16.0849 17.6715C16.5229 18.1095 17.233 18.1095 17.671 17.6715C18.109 17.2335 18.109 16.5234 17.671 16.0854L17.671 16.0839ZM7.90858 13.5135C4.81254 13.5135 2.30273 11.0036 2.30273 7.90761C2.30273 4.81157 4.81254 2.30176 7.90858 2.30176C11.0046 2.30176 13.5144 4.81157 13.5144 7.90761C13.5111 11.0022 11.0033 13.5102 7.90858 13.5135Z" fill="#64748B"/>
</svg>
