<svg width="49" height="29" viewBox="0 0 49 29" fill="none" xmlns="http://www.w3.org/2000/svg">
<path d="M26.8457 1.5L27 1.50391C27.7688 1.54509 28.5039 1.87657 29.0605 2.44629C29.6184 3.01731 29.9533 3.78494 29.9951 4.60059L30 4.76465V23.7998C29.9964 24.6745 29.6546 25.5051 29.0605 26.1133C28.4667 26.7211 27.67 27.0571 26.8457 27.0596H5.1543C4.33001 27.0571 3.53329 26.7211 2.93945 26.1133C2.38153 25.5422 2.04658 24.7748 2.00488 23.959L2 23.7959V4.76465C2.00253 3.88847 2.34443 3.05539 2.93945 2.44629C3.49613 1.87658 4.23118 1.54509 5 1.50391L5.1543 1.5H26.8457ZM11.4004 9.72656L11.3994 12.5547L13.7412 10.9678L15.9893 9.44434L15.9961 9.44043L16 9.4375L16.0039 9.44043L16.0107 9.44434L18.2588 10.9678L20.5996 12.5547V1.67285H11.4004V9.72656Z" stroke="white" stroke-width="3"/>
<path d="M38.0351 18.8289L37.3388 18.1802H41.9631C42.1056 18.1797 42.2422 18.1267 42.3428 18.0327C42.4435 17.9386 42.5 17.8112 42.5 17.6784C42.5 17.5456 42.4435 17.4183 42.3428 17.3242C42.2422 17.2302 42.1056 17.1771 41.9631 17.1767H37.3388L38.0352 16.528C38.133 16.4333 38.1871 16.3066 38.1857 16.1752C38.1844 16.0438 38.1277 15.9181 38.028 15.8252C37.9282 15.7323 37.7933 15.6795 37.6523 15.6782C37.5112 15.677 37.3752 15.7273 37.2736 15.8185L35.6578 17.3237C35.6078 17.3702 35.5681 17.4256 35.541 17.4864C35.5139 17.5473 35.5 17.6125 35.5 17.6784C35.5 17.7443 35.5139 17.8095 35.541 17.8704C35.5681 17.9313 35.6078 17.9866 35.6578 18.0332L37.2736 19.5384C37.3752 19.6293 37.5112 19.6795 37.6521 19.6782C37.7931 19.6769 37.9279 19.6241 38.0276 19.5312C38.1272 19.4384 38.1839 19.3128 38.1853 19.1815C38.1867 19.0502 38.1328 18.9236 38.0351 18.8289Z" fill="white" stroke="white"/>
<path d="M39.9649 22.5276L40.6612 23.1763H36.0369C35.8944 23.1767 35.7578 23.2297 35.6572 23.3238C35.5565 23.4178 35.5 23.5452 35.5 23.678C35.5 23.8108 35.5565 23.9382 35.6572 24.0322C35.7578 24.1263 35.8944 24.1793 36.0369 24.1798H40.6612L39.9648 24.8285C39.867 24.9232 39.8129 25.0498 39.8143 25.1812C39.8156 25.3126 39.8723 25.4383 39.972 25.5312C40.0718 25.6242 40.2067 25.6769 40.3477 25.6782C40.4888 25.6795 40.6248 25.6291 40.7264 25.538L42.3422 24.0328C42.3922 23.9862 42.4319 23.9309 42.459 23.87C42.4861 23.8092 42.5 23.7439 42.5 23.678C42.5 23.6121 42.4861 23.5469 42.459 23.486C42.4319 23.4252 42.3922 23.3699 42.3422 23.3233L40.7264 21.8181C40.6248 21.7271 40.4888 21.6769 40.3479 21.6782C40.2069 21.6796 40.0721 21.7323 39.9724 21.8252C39.8728 21.9181 39.8161 22.0436 39.8147 22.175C39.8133 22.3063 39.8672 22.4329 39.9649 22.5276Z" fill="white" stroke="white"/>
</svg>
