<svg width="34" height="34" viewBox="0 0 34 34" fill="none" xmlns="http://www.w3.org/2000/svg">
<path d="M27.4964 15.611L27.494 10.7175C27.494 9.26008 26.253 8.07433 24.7956 8.07433C24.4375 8.07433 24.0833 8.14658 23.7292 8.27621V7.51227C23.7292 6.11012 22.6989 4.95837 21.2968 4.95837H21.0959C20.7988 4.95837 20.3972 5.04019 20.1319 5.13404C20.088 3.67771 19.0421 2.83337 17.7183 2.83337H17.5174C16.1156 2.83337 15.2292 3.94723 15.2292 5.34937V5.54452C14.7603 5.35575 14.4461 5.31254 14.1614 5.31254H13.9605C12.5584 5.31254 11.3333 6.54929 11.3333 7.95144V14.8761C10.9792 14.5988 10.6679 14.3898 10.2439 14.2705C9.47183 14.0534 8.6824 14.1497 7.98256 14.5418C6.54819 15.3457 6.03925 17.1601 6.8255 18.5998C7.01498 19.0067 7.50302 20.0926 7.64681 20.6352C8.1345 22.474 8.88569 24.8537 10.3619 26.9535C12.2931 29.7008 14.8778 31.093 18.0455 31.0927C18.0979 31.0927 18.1518 31.0923 18.2045 31.0916C21.1105 31.0491 23.2638 30.2891 24.7878 28.7672C26.5699 26.9868 27.5517 24.6497 27.5517 22.1797L27.4964 15.611ZM23.5847 27.5631C22.3897 28.7566 20.6221 29.3544 18.1801 29.3899C18.1358 29.3906 18.0919 29.3909 18.048 29.3909C13.8001 29.3909 10.9363 26.3823 9.29723 20.1989C9.08473 19.3974 8.33744 17.7973 8.33744 17.7973C7.98646 17.1718 8.21029 16.3771 8.83575 16.0264C9.13892 15.8564 9.4899 15.8146 9.82458 15.9092C10.1589 16.0034 10.4369 16.2223 10.6066 16.5255L13.2766 20.9826C13.5182 21.3857 14.0409 21.5171 14.4443 21.2755C14.8477 21.034 14.9706 20.5112 14.7291 20.1079L13.1042 17.4084V7.95144C13.1042 7.48819 13.4969 7.08337 13.9605 7.08337H14.1614C14.6246 7.08337 15.2292 7.48819 15.2292 7.95144V15.804C15.2292 16.274 15.4675 16.6551 15.9375 16.6551C16.4075 16.6551 16.6458 16.274 16.6458 15.804V5.34937C16.6458 4.88612 16.8973 4.25004 17.3605 4.25004H17.7183C18.1819 4.25004 18.4167 4.88612 18.4167 5.34937V16.2152C18.4167 16.6852 18.8321 17.0663 19.3021 17.0663C19.7721 17.0663 20.1875 16.6852 20.1875 16.2152V7.45737C20.1291 6.93073 20.5101 6.37504 20.955 6.37504H21.1558C21.619 6.37504 21.9583 7.04867 21.9583 7.51227V17.0386C21.9583 17.5086 22.3738 17.8897 22.8438 17.8897C23.3137 17.8897 23.7292 17.5086 23.7292 17.0386V11.055C23.6849 10.1823 24.3355 9.7761 24.8544 9.7761C25.3732 9.7761 25.8542 10.1986 25.8542 10.7175V15.2533L25.8804 22.1872C25.8804 24.1949 25.0449 26.1042 23.5847 27.5631Z" fill="white" stroke="white" stroke-width="0.5"/>
</svg>
